<svg width="64" height="64" viewBox="0 0 64 64" fill="none" xmlns="http://www.w3.org/2000/svg">
<rect width="64" height="64" rx="4" fill="url(#paint0_linear_2_2)"/>
<g clip-path="url(#clip0_2_2)">
<path d="M46.7366 32.506L47.2172 32.0186L46.7366 31.5279C45.9548 30.7156 45.1121 29.548 45.1121 29.1013V23.9063C45.1121 20.0345 44.1543 17.2627 42.1169 15.1712C40.3604 13.3538 37.5243 12.2572 34.1636 12.044L33.4292 12V19.2324L34.0418 19.3103C35.3008 19.4659 36.2687 19.8551 36.6342 20.356C37.2367 21.1683 37.5345 22.3596 37.5345 23.8961V29.0911C37.5345 30.0252 38.4483 31.2368 39.0811 31.9611C38.472 32.6176 37.5345 33.8191 37.5345 34.9089V40.0396C37.5345 41.7318 37.2231 42.9524 36.6004 43.7015C36.2112 44.1685 35.2466 44.5341 34.0418 44.6897L33.4292 44.7676V52L34.1873 51.9357C37.504 51.6548 40.2792 50.5819 41.9714 48.9202C44.063 46.8896 45.1324 43.6778 45.1324 39.4439C45.1324 39.4135 45.1087 36.019 45.1324 34.9393C45.1358 34.3877 46.0936 33.1625 46.7366 32.506Z" fill="white"/>
<path d="M31.693 19.2392V12H20V18.163V19.2392V44.8353V52H27.6622H31.693V44.8353H27.6622V19.2392H31.693Z" fill="white"/>
</g>
<defs>
<linearGradient id="paint0_linear_2_2" x1="0" y1="0" x2="64" y2="64" gradientUnits="userSpaceOnUse">
<stop stop-color="#5A88D8"/>
<stop offset="1" stop-color="#7C1D22"/>
</linearGradient>
<clipPath id="clip0_2_2">
<rect width="27.2172" height="40" fill="white" transform="translate(20 12)"/>
</clipPath>
</defs>
</svg>
